<?xml version="1.0" standalone="no"?>
<!DOCTYPE svg PUBLIC "-//W3C//DTD SVG 20010904//EN"
 "http://www.w3.org/TR/2001/REC-SVG-20010904/DTD/svg10.dtd">
<svg version="1.0" xmlns="http://www.w3.org/2000/svg"
 width="700.000000pt" height="700.000000pt" viewBox="0 0 700.000000 700.000000"
 preserveAspectRatio="xMidYMid meet">
<metadata>
Created by potrace 1.11, written by Peter Selinger 2001-2013
</metadata>
<g transform="translate(0.000000,700.000000) scale(0.100000,-0.100000)"
fill="#000000" stroke="none">
<path d="M3413 6950 c-45 -27 -106 -62 -135 -78 -53 -29 -402 -231 -468 -271
-19 -11 -57 -33 -85 -48 -27 -15 -58 -32 -67 -38 -26 -15 -424 -246 -472 -274
-85 -48 -519 -299 -726 -419 -252 -145 -394 -228 -735 -424 l-250 -144 0
-1754 0 -1753 560 -323 c308 -178 583 -337 610 -353 28 -16 237 -137 465 -269
228 -131 489 -282 580 -334 91 -52 310 -179 488 -282 l322 -186 123 71 c128
75 153 90 252 146 33 19 67 38 75 43 47 30 242 140 247 140 4 0 14 6 22 14 9
7 41 27 72 44 31 17 107 61 168 97 62 36 114 65 115 65 2 0 43 24 92 53 49 29
114 67 144 84 30 17 93 53 140 80 47 27 105 61 130 75 25 14 99 57 165 95 180
105 754 436 805 465 25 14 80 46 123 72 43 25 80 46 82 46 2 0 40 23 85 50 45
28 83 50 86 50 2 0 26 14 54 31 l50 31 -2 1751 -3 1751 -85 49 c-47 27 -103
60 -125 72 -22 13 -107 62 -188 109 -82 47 -152 86 -158 86 -5 0 -9 5 -9 10 0
6 -4 10 -10 10 -5 0 -47 22 -92 49 -46 27 -100 58 -120 70 -21 11 -124 71
-230 132 -106 61 -206 119 -223 129 -16 9 -118 68 -225 130 -107 62 -211 122
-230 133 -19 10 -150 86 -290 167 -485 281 -1040 600 -1043 600 -1 -1 -39 -23
-84 -50z m-118 -1083 c0 -462 -2 -527 -15 -528 -22 -1 -1759 0 -1800 0 l-35 1
45 26 c25 14 63 36 85 48 22 13 229 132 460 266 231 133 521 301 645 372 124
72 266 154 315 183 50 29 110 64 135 77 25 14 68 39 95 56 28 17 54 29 60 28
6 -2 10 -192 10 -529z m642 407 c120 -70 278 -161 351 -203 73 -42 147 -84
165 -95 18 -10 181 -104 362 -208 182 -105 347 -201 367 -214 21 -13 39 -24
41 -24 13 0 328 -190 317 -191 -20 -1 -1812 -1 -1825 0 -7 1 -10 183 -9 528 1
291 2 529 3 531 3 5 19 -4 228 -124z m-642 -1877 c0 -291 -2 -530 -5 -532 -3
-2 -48 22 -100 52 -52 31 -120 70 -150 87 -64 36 -269 154 -308 177 -69 41
-308 178 -335 193 -12 6 -33 18 -47 27 -14 9 -88 52 -165 96 -412 237 -721
416 -727 422 -5 4 407 7 914 6 l923 0 0 -528z m2255 527 c0 -3 -166 -100 -406
-237 -65 -37 -126 -72 -134 -77 -55 -33 -679 -394 -743 -429 -16 -9 -36 -20
-45 -26 -82 -48 -510 -295 -513 -295 -4 0 -3 1046 0 1060 1 5 1841 9 1841 4z
m-4180 -431 c47 -28 105 -62 130 -75 25 -14 218 -126 430 -248 212 -123 399
-230 415 -240 17 -9 118 -68 225 -130 107 -62 214 -123 238 -137 120 -68 268
-155 275 -162 4 -4 -192 -122 -435 -261 -244 -139 -452 -259 -464 -267 -19
-12 -24 -5 -102 130 -46 78 -89 153 -97 167 -15 25 -85 147 -300 520 -62 107
-187 325 -279 483 -91 159 -166 291 -166 293 0 3 10 -2 23 -9 12 -8 60 -37
107 -64z m4377 49 c-10 -10 -17 -21 -17 -24 0 -4 -32 -62 -71 -130 -39 -67
-81 -141 -94 -163 -12 -22 -55 -96 -95 -165 -40 -68 -81 -138 -90 -155 -10
-16 -93 -160 -185 -320 -92 -159 -178 -309 -191 -332 -63 -111 -157 -269 -164
-277 -5 -5 -34 7 -67 27 -32 19 -74 44 -93 54 -19 11 -181 104 -360 208 -179
103 -342 197 -362 208 -21 12 -38 23 -38 27 0 4 645 381 909 531 207 117 888
513 896 520 5 5 16 9 24 9 12 0 11 -3 -2 -18z m369 -2309 c-2 -2 -39 17 -82
43 -44 25 -108 62 -144 82 -36 19 -89 50 -118 69 -29 18 -54 33 -56 33 -3 0
-107 60 -233 133 -126 72 -241 138 -256 146 -33 17 -33 26 -5 71 21 36 116
198 150 258 10 18 150 261 311 540 161 279 324 561 363 628 l69 121 3 -1060
c1 -583 0 -1062 -2 -1064z m-5064 1832 c86 -148 166 -288 178 -310 12 -22 42
-73 66 -112 24 -40 44 -75 44 -79 0 -3 8 -18 19 -32 10 -15 31 -49 46 -77 60
-109 299 -522 316 -547 11 -15 19 -30 19 -32 0 -3 14 -28 30 -54 17 -27 30
-54 30 -60 0 -7 -23 -24 -51 -39 -29 -16 -59 -33 -68 -38 -9 -6 -63 -37 -121
-70 -58 -33 -113 -64 -122 -70 -178 -103 -392 -226 -430 -246 -26 -14 -53 -31
-60 -37 -8 -6 -26 -15 -41 -21 l-27 -11 0 1062 c0 587 4 1058 9 1053 4 -6 78
-131 163 -280z m2818 -1014 c74 -43 151 -88 170 -98 19 -11 91 -53 160 -93 69
-41 138 -81 153 -89 16 -9 36 -20 46 -26 9 -5 63 -36 119 -69 56 -32 104 -61
107 -65 4 -7 -41 -88 -180 -326 -29 -49 -136 -234 -237 -410 -102 -176 -229
-396 -283 -490 -54 -93 -106 -183 -114 -198 -9 -16 -20 -36 -26 -45 -5 -9 -25
-43 -43 -74 -19 -32 -34 -58 -35 -58 -1 0 -2 479 -2 1065 0 934 2 1065 15
1060 8 -4 75 -41 150 -84z m-575 -970 c0 -577 -3 -1052 -6 -1055 -2 -3 -31 41
-64 97 -32 56 -107 185 -166 287 -59 102 -116 201 -126 220 -11 19 -50 86 -87
149 -36 62 -66 115 -66 118 0 2 -8 16 -19 31 -15 23 -284 486 -352 609 -12 21
-26 44 -31 51 -6 7 -9 14 -7 17 5 4 286 168 387 224 35 20 71 41 81 46 9 6 64
37 121 70 58 33 114 65 125 72 11 7 29 17 40 22 11 6 49 28 85 50 36 22 70 40
75 40 7 1 10 -355 10 -1048z m-1214 202 c35 -60 72 -124 82 -143 11 -19 51
-89 90 -155 38 -66 81 -140 95 -165 13 -25 46 -81 72 -125 38 -64 377 -652
450 -780 10 -16 27 -47 40 -67 12 -21 19 -38 15 -38 -3 0 -176 98 -383 218
-324 188 -532 308 -600 347 -9 6 -53 31 -97 56 -44 26 -96 55 -115 66 -19 11
-93 54 -165 95 -156 91 -176 102 -344 198 -127 72 -131 76 -110 90 12 8 187
110 388 226 201 115 397 228 436 251 38 23 73 39 76 37 4 -2 35 -52 70 -111z
m3369 -145 c239 -138 440 -256 447 -262 11 -10 -97 -77 -481 -295 -22 -13 -81
-47 -131 -76 -49 -29 -110 -63 -135 -77 -25 -14 -229 -132 -455 -263 -225
-131 -435 -251 -465 -268 -30 -17 -72 -41 -92 -54 -21 -13 -42 -23 -48 -23 -5
0 -10 -5 -10 -12 0 -6 -3 -9 -6 -5 -3 3 65 129 151 279 87 150 166 289 177
308 28 49 111 191 125 215 7 11 17 29 23 40 5 11 22 41 38 67 15 26 110 191
212 367 138 239 189 320 200 315 8 -3 211 -118 450 -256z"/>
</g>
</svg>
