<svg id="Ebene_1" class="atom-logo" data-name="Ebene 1" xmlns="http://www.w3.org/2000/svg" width="160" height="80" viewBox="0 0 160 80" data-gtm-vis-recent-on-screen-10416864_321="76039" data-gtm-vis-first-on-screen-10416864_321="76039" data-gtm-vis-total-visible-time-10416864_321="2000" data-gtm-vis-has-fired-10416864_321="1"><defs><style>.cls-1{fill:#ff671f;}.cls-2{fill:#fff;}</style></defs><title>blum</title><rect id="BGR" class="cls-1" width="160" height="80"></rect><g id="Logo"><polygon class="cls-2" points="57.373 54.091 65.792 54.091 75.588 26.492 67.134 26.492 57.373 54.091 57.373 54.091"></polygon><path class="cls-2" d="M91.055,54.087H99.4l4.358-12.152c1.743-2.929,5.229-2.267,4.584.3l-4.183,11.856h8.715l4.131-11.594c1.1-2.912,5.665-3.086,4.671.349l-3.887,11.246h8.419l4.706-13.338c1.569-4.533-3.974-10.6-13.508-3.923-1.133-3.051-5.839-4.969-12.114-.523l.418-1.813H97.887l-6.833,19.6Z"></path><path class="cls-2" d="M131.065,26.847a2.066,2.066,0,0,1,2-1.5,2.092,2.092,0,1,1-2.109,2.092,1.7,1.7,0,0,1,.1-.593l-.244-.1a2.357,2.357,0,0,0,2.249,3.051,2.354,2.354,0,1,0-2.249-3.051l.244.1Z"></path><path class="cls-2" d="M132.652,27.388h-.087v-.7h.976c.436.122.244.7-.087.7h-.8v.244h.575c.732.1.366.767.54.976h.244c-.192-.262.139-.785-.331-1.029a.6.6,0,0,0-.227-1.151H132.32v2.162h.227v-.959h.1v-.244Z"></path><path class="cls-2" d="M82.5,34.473h-7.9L69.953,47.514c-2.318,7.358,5.09,9.8,12.149,4.708l-.471,1.866h7.53L96.1,34.49H88.046L83.932,45.684c-.959,2.737-6.31,4.272-5.491.087l4.061-11.3Z"></path><path class="cls-2" d="M42.242,26.445H50.7l-3.137,9.066c10.423-6.189,15.652,2.232,11.068,10.723C52.787,58,41.858,55.213,41.37,51.9l-.906,2.179H32.533Zm3.974,14.384A8.471,8.471,0,0,0,45,42.276c-1.569,2.267-1.656,4.655-.087,5.7,1.447.959,3.957-.017,5.525-1.953,1.656-2.057,1.917-5.108.314-6.155-1.36-.889-3.05-.436-4.532.959"></path><path class="cls-2" d="M29.865,42.917s.6-1.487,1.685-.712L33.095,43.5s.79.6.605-.546l-.923-7.942s-.168-1.254-1.032-.409l-5.529,5.592s-.761.721-.2.839l2.231-.019s1.569-.014.924,1.979l-3.86,11.1-.732.006,3.945-11.3s.269-1.136-.5-1.077l-2.143.036c-1.081-.008-1.126-1.176-.4-1.862l5.961-6.015a1.145,1.145,0,0,1,2.011.7c.225,1.794,1.017,8.726,1.017,8.726a.989.989,0,0,1-1.753.817l-1.194-.983s-.757-.813-1.079.236L26.7,54.085l-.715.006,3.876-11.175Z"></path></g></svg>